<svg xmlns="http://www.w3.org/2000/svg" width="682.667" height="682.667" version="1" viewBox="0 0 512 512"><path d="M55.8 35c-2 1.1-4.7 3.4-6 5.2l-2.3 3.3v95c0 87.3.1 95.7 1.8 104 5.1 25.4 11.6 40.7 23.6 55.3 9.9 12 28.6 21.1 43.3 21.2h4.7l.3 67.8.3 67.7 2.7 5.7c3.1 6.6 9 12.7 15.6 15.9l4.7 2.4h297l4.7-2.2c6.9-3.2 13.1-9.4 16.2-16.2l2.6-5.9-.2-90.9-.3-90.8-2.3-4.7c-3-6-9-12-15-15l-4.7-2.3-123.6-.3-123.6-.2-.6-11.3c-.6-12.4-4.4-31.9-8.4-43.1-5.8-15.9-23.5-49.2-30-56.2-2.6-2.9-6.4-3.1-8.7-.5-2.9 3.2-32.7 78.2-32.4 81.6.2 2 1.2 3.4 3 4.4 2.5 1.5 3.5 1.2 19.8-5.3 9.6-3.8 17.5-6.5 18-6 2.4 2.6 6.6 29.1 5.4 33.9-.6 2.3-1 2.5-7.3 2.5-8.2 0-12.3 1.1-18.3 4.9-8.5 5.4-14.8 17.1-14.8 27.5v3.7l-4.7-.7c-6.8-1-10.8-2.9-15.9-7.6-8.8-8.1-14.9-21.8-18.1-40.5-1.4-8.4-1.7-22.6-2.2-101.8-.5-71.4-.9-92.5-1.9-94.2C74.1 34.1 63.1 31 55.8 35zm126 187.2c.5.7 1.8 4.8 2.7 9.1 2.3 10.3 1.7 22.7-1.6 32.2-2.1 6-2.8 7-5 7.3-4.7.5-5.5-1.9-3-9.6 3.2-9.4 3.7-18.1 1.6-27.2-.9-4.1-1.7-8.4-1.6-9.4 0-3.3 4.8-4.9 6.9-2.4zm45.1 70.9c22 11 21 42.3-1.7 52.7-4.7 2.1-6.4 2.4-13.1 2-8.4-.5-12.1-2-18.2-7.5-6.5-5.8-9.3-12.4-9.3-21.3 0-6.1.5-8.4 2.6-12.5 5.7-10.8 14.7-16.4 26.4-16.5 5.9 0 8.1.5 13.3 3.1zm197 11.7c8.9 4.8 9.4 18 .8 23.2-3.1 1.9-5.4 2-61 2-63.8 0-61.8.2-65.7-6.3-3.9-6.3-1.9-15 4.3-18.7 3.1-1.9 5.4-2 60.7-2 53.8 0 57.8.1 60.9 1.8zm-197.4 63.6c18 4.8 32.3 19.1 37 37.1.9 3.6 1.5 10.3 1.5 17 0 12.4-1.3 15.9-7.2 19.5-3.2 1.9-5.1 2-43.8 2-36.6 0-40.8-.2-43.9-1.8-6.2-3.1-7.6-6.1-7.9-17.4-.5-12.6 1-20.3 5.4-29.4 8.5-17.4 26.1-28.3 45.4-28.4 4.7 0 10.8.6 13.5 1.4zm198.2.6c9.1 5.5 8 18.4-1.9 23.6-2.2 1.2-12.6 1.4-59.3 1.4-62.7 0-61.6.1-65.7-6.4-4-6.4-.9-16.9 5.7-19.6 1.1-.5 28.1-.9 60-.9 55.8-.1 58.1 0 61.2 1.9z"/></svg>