<svg version="1" xmlns="http://www.w3.org/2000/svg" width="346.667" height="346.667" viewBox="0 0 260.000000 260.000000"><path d="M21.4 11.7c.4.7.3 1.3-.2 1.3s-.7 1.3-.4 3c.3 1.9.8 2.7 1.6 2.3.6-.4.5.1-.3 1.1-1.2 1.5-1.2 1.7 0 1.4.8-.2 1.3.3 1.1 1-.1.8.2 1.1.8.7.5-.3 1 .2 1.1 1.2 0 1 .3 1.3.6.6.3-1 .7-1 1.8 0 .7.7 1.1 1.5.8 1.9-.2.4.3.5 1.1.2.9-.4 1.6-.1 1.6.6s.7 1 1.6.6c1.1-.4 1.8.1 2.1 1.4.5 1.7 1.4 2.2 3.9 1.9.3 0 1.2.8 2.1 1.8.9 1.1 1.2 1.2.8.3-.4-1-.2-1 .8.2 1.1 1.4 1.6 1.5 2.7.5.9-.8 1.1-.8.6 0-.3.7.6 1.7 2.3 2.4 1.6.7 2.7 1.7 2.5 2.1-.3.4.2.8 1 .8s1.8.5 2.2 1.2c.5.7.2.8-.7.3-.8-.5-1.1-.4-.6 0 .7.9 2.3 1.3 6.2 1.8 1.1.1 2.3.6 2.7 1.2.5.6.8.5.8-.2s.7-1 1.6-.6c1.3.5 1.3.8.2 1.5-.9.7-.4.8 1.5.3 1.9-.4 2.6-.2 2.2.4-.3.7 0 .8.9.5.9-.3 1.6-.1 1.6.5s.7.8 1.5.5c.8-.4 1.5-.1 1.5.7 0 .7.3.9.6.6.4-.4 1.5.3 2.5 1.4 1.2 1.4 2.6 2 3.8 1.6 1.1-.2 3 .2 4.2 1.1 1.2.8 1.9 1 1.5.4-.4-.7-.2-1.2.3-1.2.6 0 1.1.6 1.1 1.4 0 .9.7 1.3 2 1.1 1.1-.2 2 .1 2 .6 0 .6.4.7 1 .4.6-.3.7.1.4.9-.3.9-.2 1.6.4 1.6.6 0 .8.9.5 2-.4 1.4 0 2 1.1 2 1 0 1.4.4 1.1 1-.3.5.1 1 .9 1 1 0 1.3.6.9 1.7-.4 1-.2 1.4.4 1 .6-.4 1.3.5 1.5 2.3.3 1.8 0 3.1-.9 3.4-.7.3-1.3 1.3-1.3 2.1 0 .9-.3 1.4-.7 1.2-.5-.2-1.6.4-2.5 1.5-1 1-1.5 1.8-1.2 1.8.4 0 .1.6-.5 1.4-.9 1.1-.9 1.5.1 1.9.9.4.8.6-.3.6-.9.1-2 .8-2.3 1.7-.5 1.2-1 1.3-1.9.6-1.6-1.4-6.8-.8-8.1.9-1.7 2.2-8 6.3-7.2 4.8.4-.8 0-.5-.9.6s-2.1 1.9-2.6 1.8c-.5-.2-.9.2-.9.7 0 .5-.3.9-.7.9-2.3-.4-3.5.3-3 1.5.4 1.1.1 1.3-1 .9-1-.4-1.4-.2-.9.5.3.6-.3 1.3-1.5 1.7-1.2.4-1.8 1.2-1.5 2.1.3.8.2 1.4-.3 1.4s-1.1 1.4-1.3 3.1c-.4 2.4-.1 3.2 1.6 3.9 1.2.4 2 1.1 1.9 1.6-.4 1.3 6 1.1 7.7-.3 2.1-1.6 3.1-1.7 4.1-.2.6 1 1.1 1 2.5-.2 1.6-1.2 1.7-1.2 1 .1-.5.9-.2.8.7-.2 1-1.3 1.6-1.5 2.5-.6.9.9 1.2.9 1.2 0 0-.7 1-1 2.2-.8 1.2.1 2.8-.3 3.6-1 .7-.7 2-1 2.9-.7 1.1.4 1.4.3.9-.5-.4-.7-.1-1.2.9-1.2.8 0 2-1 2.5-2.3.5-1.2.9-1.6.9-.9.1.7.6 1 1.1.7.6-.4.8-1.1.5-1.6-1-1.6 2.4-2.2 4.2-.8 1.2 1 1.5 1 .9.1-.5-.9.5-1.2 4.1-1.3 2.6-.1 5.2-.1 5.7 0 .4.1 1.4-.4 2.2-1 .8-.6 1.4-.8 1.4-.4s.8.1 1.7-.6c.9-.8 1.4-.9 1-.3-.4.7.2 1.4 1.3 1.7 1.2.3 1.8.1 1.4-.5-.8-1.3 3.8-.6 5.4.9.6.6 1.2 1.9 1.2 2.8 0 .9.5 1.3 1 1 .6-.3 1.3.1 1.6.9.3.9 1.3 1.6 2.1 1.6s1.1.4.8 1c-.3.5.1 1 .9 1 .9 0 1.6.4 1.6 1 0 .5.7 1 1.5 1s1.5.5 1.5 1.1c0 .5-.4.7-1 .4-.6-.3-.7.1-.4.9.3.9 1.1 1.3 1.8.9s.7-.2-.1.8c-1 1.2-1 1.8 0 2.9 1 1 .9 1.1-.2.5-1-.6-1-.3.1 1.6.8 1.3 1.4 3.8 1.3 5.6-.1 1.8.2 3 .7 2.7.4-.3.8-.2.9.3 0 .4.2 1.6.4 2.6.2.9-.1 1.5-.6 1.2-.5-.4-.6.1-.3.9.3.9 1 1.4 1.4 1.1.4-.3.8 1 .9 2.8.1 6.2.2 6.7 1.3 6.7.5 0 .7.7.4 1.6-.5 1.3-.4 1.4.7.6 1-.9 1.4-.8 1.5.3.1.8.3 2.2.4 3 .1.8.5 1.5 1 1.5.4 0 .8.9.8 2s.5 2 1.1 2c.5 0 .8.4.4.9-.3.5.3 1.6 1.3 2.3 1.9 1.3 2.2 1.8 2.2 3.8 0 .5.8 1 1.8 1 1.2 0 1.3.3.5.8-.9.6-.5 1.3 1.2 2.6 1.4 1 2.2 2.3 1.9 2.8-.3.4 0 .7.8.6.7-.2 1.2.2 1.1.9-.2.7.3 1 1.1.7 1.6-.6 4 2.9 2.8 4.1-.4.4 0 .6.8.3s2.1.4 2.8 1.6c1 1.6 1.2 1.6.8.3-.3-1.1-.2-1.5.4-1.2.6.3 1 1.3 1 2.1s.5 1.4 1.1 1.4c.5 0 .7-.4.4-1-.3-.6.1-.7.9-.4 1.1.4 1.6 0 1.6-1.5 0-1.2.3-2.1.8-2.1 1.5 0 3.2-5.3 2.1-6.6-.7-.8-.7-1.4.1-1.9.6-.3.7-1.2.3-1.8-1-1.7-1.1-4.7-.1-4.1.4.3.8.1.8-.5 0-.5-.5-1.3-1-1.6-.6-.4-.7-1.3-.1-2.3 1.3-2.5 1.3-2.5.2-5.5-.7-1.8-.7-2.6-.1-2.2.6.3 1 .2 1-.4 0-.5-.5-1.3-1-1.6-.6-.4-.7-1.3-.1-2.3 1.3-2.5 1.3-2.5.2-5.5-.6-1.6-.7-2.6-.2-2.2.6.3.9-.4.8-1.5-.1-1.1-.5-2-1-2s-.5-.6.2-1.3c.8-1 .7-1.7-.2-2.7-.9-1-.9-1.1.1-.6 1.5.9 1.5.5.2-2.8-.6-1.7-.6-2.7.2-3.2.7-.5.5-1-.5-1.5-.9-.6-1.3-1.7-1-2.9.3-1.1 0-2.7-.7-3.5-1-1.2-1-1.5.1-1.5.8 0 .6-.6-.7-1.6-1-.8-1.2-1.3-.4-.9 1 .4 1 .2-.2-.8-1.4-1.1-1.5-1.6-.5-2.7.9-1 .9-1.1 0-.6-1.2.6-1.5 0-1.2-2 0-.4-.5-1.1-1.3-1.5-1-.7-1-.9 0-.9 1.3 0 1.2-.1-2.1-6.8-.9-1.8-1.2-3-.7-2.7.6.3 1 .1 1-.4 0-.6-.5-1.1-1.1-1.1-1.9 0-3.8-2.6-2.8-3.9.5-.6.6-.9.3-.6-1.1.8-5.3-4.7-4.7-6.2.3-.8.8-1.2 1-.9.7.6 3.3-2 3.3-3.2 0-.5 1-1.2 2.1-1.5 1.5-.4 2-1.1 1.5-2.2-.3-.9-.2-1.3.4-1 .9.6 1.4-.8 1.1-2.8 0-.4.5-.7 1.2-.8 2.1-.1 4.9-.7 5.3-1.2 1.2-1.1.9-6.4-.4-8.5-.8-1.2-1.1-2.2-.7-2.2.4 0 .2-.7-.5-1.5s-1.6-1.3-2-1c-.5.3-1.4 0-2.2-.7-.7-.7-2-1.4-2.8-1.6-.8-.2-1.8-.9-2.2-1.5-.6-.9-.8-.8-.8.1 0 .7-.4 1-1 .7-1.9-1.2-5.1-1.4-4.4-.4.4.7-.6.9-3 .6-2-.3-3.3-.1-3 .4.3.5.2 1-.3 1-4.6.8-6.4.9-10.3 1.1-2.5 0-4.6-.4-4.8-1.1-.2-.6-.8-.8-1.4-.5-.5.3-.8 0-.6-.7.4-1.9-5.1-7.9-7.1-7.9-1.8 0-5.2-3.4-4.5-4.4.2-.3.1-.4-.3-.1-.3.3-1.3-.1-2.1-.8-1.3-1-1.5-.9-.8.3.4.9.2.8-.7-.2-.8-1-1.7-1.5-2-1.1-.4.3-.7.1-.7-.5 0-.7-1-1.2-2.3-1.2-1.3 0-2.8-.5-3.4-1.1-.5-.5-2.6-1.1-4.4-1.1-1.9-.1-3.7-.6-4.1-1.2-.5-.7-.8-.6-.8.4 0 1.2-.2 1.2-.9.2-.4-.7-1.7-1.4-2.9-1.5-1.1 0-1.8-.5-1.6-.9.3-.4-.9-.8-2.5-.8-1.7 0-3.1-.4-3.1-.8s-1.2-.8-2.7-.9c-6.9-.3-9.3-.7-9.3-1.5 0-1.1-2.3-.6-3.2.7-.5.6-.8.5-.8-.3 0-.7-.4-1-1-.7-.5.3-1-.2-1-1.2 0-1.5-.2-1.6-1-.3-.5.8-1 1-1 .5 0-.6-1.7-1.1-3.7-1-2.1 0-4.6-.3-5.5-.7-1-.5-1.8-.3-2.1.5-.4.9-.6.9-.6-.1-.1-.7-.6-1-1.1-.7-.5.3-1 .1-1-.5s-.4-.8-1-.5c-.5.3-1 .1-1-.5s-.4-.8-1-.5c-.5.3-1 .2-1-.3s-.6-.9-1.2-1c-2.2-.1-5.8-1.1-7-1.8-.7-.5-.8-.3-.3.6.6.9.4 1.1-.6.4-.8-.4-3-.9-4.9-1.1-1.9-.2-3.7-.8-3.8-1.3-.3-.8-.8-.7-1.7 0-.9.8-1.5.8-2 0-.3-.5-.1-1 .6-1s.9-.3.6-.6c-.4-.4-1.3-.1-2.2.6-1.2 1-1.6.9-2.1-.5-.5-1.3-.9-1.4-1.5-.3-.5.7-.9.8-.9.3 0-.6-1.1-1.2-2.6-1.3-1.8-.1-2.3.2-1.8 1.1.5.7 0 .6-1.1-.3-1.1-.9-1.6-1-1.1-.3zM38.1 120.9c-1 .6-.9 1 .3 1.4.8.3 1.8.2 2.1-.3.8-1.3-.9-2-2.4-1.1z"/><path d="M41 122.5c-.7.8-1.6 1.2-2.1.9-1.5-.9-1 .8.6 2 .8.6 1.6 2.4 1.9 4 .3 1.6.7 3.1 1 3.3.3.3.1 1.6-.4 2.9-.7 1.6-.6 2.4.1 2.4.8 0 .8.4.2 1.2-.5.7-.9 3.1-.9 5.3.1 2.2-.5 4.6-1.1 5.3-.7.7-1.3 2.5-1.3 3.9 0 1.7-.4 2.3-1.4 2-1-.4-1.2 0-.8 1.5.3 1.3.1 1.9-.5 1.5-1.2-.7-1 2.9.2 4 .4.5.5.3.2-.3-.4-.7 0-1.4.8-1.7 1-.4 1.2-.1.8 1.1-.3 1.1.1.9 1.1-.6 1-1.2 1.4-2.6 1.1-3.2-.3-.6.1-.7.9-.4.9.4 1.8-.1 2.2-1 .3-.9 1.1-1.3 1.7-.9.5.3.7.2.4-.4-.7-1.1 1.4-6.3 2.6-6.3.4 0 .7-.7.7-1.6 0-.9.5-1.2 1.2-.8.7.5.9.2.5-.9-.3-.9.1-1.8.9-2.1.9-.3 1.4-1.2 1.2-1.8-.3-.7.5-2.1 1.6-3.1 1.2-1 1.5-1.6.9-1.2-.7.3-1.3.1-1.3-.5s.7-1.3 1.5-1.6c.8-.4 1.2-1 .9-1.5-.3-.5 0-.9.7-.9.8 0 .7-.5-.2-1.7-.9-1-.9-1.4-.2-1 .9.6 1.2-.1 1-2.3-.1-1.8-.7-2.8-1.4-2.6-.6.3-1.4-.2-1.7-1-.3-.9-1-1.3-1.5-1-.5.4-1.2 0-1.4-.6-.4-1-.6-.9-.6.1-.1 1.1-.6 1-2.1-.4-1.2-1.1-2-1.3-2-.6 0 .8-.5.9-1.9.1-2.5-1.3-2.6-1.3-4.1.5zM126.1 131.6c-.7.8-1.9 1.3-2.7 1-.8-.3-1.4-.1-1.4.4s-.7.6-1.7.3c-1.1-.4-1.4-.3-.9.5.4.7.3 1.2-.3 1.2-.5 0-2.3 1.2-4 2.6-1.7 1.4-3.5 2.3-4.1 1.9-.5-.3-1-.1-1 .4 0 .6-.4 1.1-1 1.1-.5 0-1.9.8-3 1.7-1.1 1-2.6 1.8-3.3 1.8-.7.1-1.1.6-1 1.2.1.6-.6.9-1.7.6-1.4-.4-2 0-2 1.1 0 1-.4 1.4-1 1.1-.5-.3-1-.2-1 .4 0 .5-.9.8-2 .6-1.1-.2-1.8 0-1.5.6.4.5-.1.9-1 .9s-1.3.4-1 1c.3.5-.1 1-.9 1s-2.2.7-3 1.6c-.9.9-1.6 1.1-1.6.4 0-.6-.5-.8-1-.5-.6.4-.8 1.1-.5 1.6.4.5-.2.9-1.2.9-1.4.1-1.3.4.7 1.5 3 1.7 4 1.8 4 .4 0-.5-.5-.7-1.2-.3-.6.4-.8.3-.5-.3.4-.6 1.7-.8 3-.6 1.4.3 3.1-.2 3.9-1.1.9-.8 1.8-1.2 2.2-.9.3.4.6.1.6-.6 0-.8.7-1.1 1.5-.7.8.3 1.5.2 1.5-.3s1.1-.7 2.4-.6c1.6.2 2.3-.1 2-.9-.3-.7.7-1.3 2.7-1.4 2.5-.2 3 .1 2.5 1.3-.4 1-.2 1.4.6.9.7-.5.9.1.6 2-.3 1.5-.1 2.6.6 2.6s.8.3.1.8c-1.4.9-1.3 6.2 0 6.2.7 0 .7.3 0 .8-.5.4-1 4-1 8 0 4.1.4 7.2 1 7.2.7 0 .7.3 0 .8-.5.4-1 3.2-1 6.2s.5 5.8 1 6.2c.7.5.7.8 0 .8-1.1 0-1.1 7.3 0 9 .3.6.2 1-.2 1-.5 0-.9.9-.9 2s.5 2 1.1 2c.6 0 .7.3 0 .8-.5.4-1 2.9-1 5.7 0 2.7.5 5.3 1 5.7.7.5.7.8 0 .8-.6 0-.9 1.7-.7 4.1.4 3.3.2 4-.9 3.3-1.1-.6-1.2-.5-.2.7s1 1.8 0 2.9c-.9 1-.9 1.1.1.6 1.9-1.1 1.4.5-1 3.1-1.2 1.3-1.6 2.3-1 2.3.7 0 1.2-.5 1.2-1 0-.6.5-1 1-1 .6 0 .5.8-.2 1.9-.7 1.1-1.6 1.7-2 1.5-.4-.3-.8 0-.8.6 0 .7-.7.9-1.6.6-1-.4-1.3-.2-.8.6s-.2.9-2.2.5c-1.7-.3-3.6-.2-4.4.3-.9.5-2 .4-2.9-.3-1.2-1-1.3-.9-.7.2.6 1 .4 1.2-1.1.7-1.3-.4-2.6 0-3.6 1.2-1.2 1.3-1.3 1.9-.5 2 7.2.7 8.8.6 8.4-.5-.3-.6.3-1.7 1.2-2.5 1.5-1.1 1.5-1.1.5.2-.8 1-.9 2.1-.3 3 .8 1.2 1 1.1 1.1-.5v-2l.9 2c.6 1.3.9 1.5.9.5.1-1.3.2-1.3 1.1 0 .8 1.2 1 1.2 1.1-.5v-2l.9 2c.5 1.1.9 1.5.9 1 .1-.6 1.8-1 3.8-1 2.1 0 4.1.4 4.5 1 .5.7.8.6.8-.1 0-1 2.9-1 25.8-.1 8.2.3 11.2-.8 8.4-3.3-1.4-1.3-1.5-1.2-.9.3.5 1.2.3 1.6-.5 1.1-.7-.5-.8-.3-.3.5.5 1 .2.9-1.3 0-1.2-.7-1.9-1.6-1.6-2 .2-.4-.3-1-1.2-1.3-2.1-.8-2.4-.8-2.4.5 0 .5.4.8.8.5.5-.3.9.2.9 1 0 1.1-.5 1-2.2-.6-2.4-2.2-4-2.7-2.9-.8.4.7-.2.5-1.3-.5-1.1-.9-2.2-1.5-2.4-1.2-.3.2-1-.5-1.7-1.5-1-1.7-.9-1.8.6-1.4 1.6.5 1.6.5 0-.8-1.6-1.4-1.6-1.6 0-3.2.9-1 1.3-1.6.7-1.5-2.9.5-3.8-.1-2-1.4 1.4-1.1 1.5-1.6.5-2.2-.9-.6-1.1-.4-.5.5.6.9.4 1.1-.4.6-.7-.5-1-1.1-.7-1.4.3-.3.1-1.1-.5-1.8-.7-.9-.5-1.8 1-3.3 1.6-1.6 1.7-2 .5-2.5-1-.4-1.2-.2-.8.6.4.7.3.8-.5.4-.9-.6-.9-1.1 0-2.2s.9-1.7-.1-2.9-.9-1.6.4-2.1c1.6-.6 2.3-2.5.9-2.3-2.2.4-2.3-.3-.3-1.9 1.8-1.4 1.9-1.9.7-1.9-.9 0-1.3.5-1 1 .3.6.1.7-.6.3-.9-.6-.9-1.1 0-2.2.8-1 .9-1.7 0-2.8-.8-1-.8-1.6.2-2.5.8-.6 1.6-1 1.8-.8.2.1.2 0 .1-.3-.2-.3-.8-.6-1.3-.6-2.3-.3-2.3-.5 0-1.8 2-1.1 2.1-1.4.7-1.9-1.1-.5-1.5-.3-1 .5.4.7.3.8-.5.4-.9-.6-.9-1.1 0-2.2s.9-1.7-.1-2.9-.9-1.6.4-2.1c1.6-.6 2.3-2.5.9-2.3-2.2.4-2.3-.3-.3-1.9 1.8-1.4 1.9-1.9.7-1.9-.9 0-1.3.5-1 1 .3.6.1.7-.6.3-.9-.6-.9-1.1 0-2.2.8-1 .9-1.7 0-2.8-.8-1-.8-1.6.2-2.5.8-.6 1.7-.9 2-.6.4.3.4.2.1-.2-.3-.5-1-.9-1.5-.9-2.3-.3-2.3-.5 0-1.8 2-1.1 2.1-1.4.7-1.9-1.1-.5-1.5-.3-1 .5.4.7.3.8-.5.4-.9-.6-.9-1.1 0-2.2.8-1 .9-1.7 0-2.8-.8-1-.8-1.6.2-2.5.8-.6 1.7-.9 2-.6.4.3.4.2.1-.3-.3-.4-1-.8-1.5-.8-2.3-.3-2.3-.5 0-1.8 2-1.1 2.1-1.4.7-1.9-1.1-.5-1.5-.3-1 .5.4.7.3.8-.5.4-.9-.6-.9-1.1 0-2.2.8-1 .8-1.8 0-2.7-.8-1-.7-1.7.2-2.6.9-.9.9-1.4-.2-2-.9-.6-1-1-.2-1.2.7-.3 1.3-1.4 1.4-2.7 0-1.2.4-2.2.7-2.2.4 0 .7-.7.7-1.5s-.4-1.2-.9-.9c-1.2.8-1-1 .4-2.4.9-.9.9-1.2 0-1.2-.7 0-1.2-.5-1.2-1.1 0-.5.4-.8.8-.5.4.2.8-1.3.7-3.5 0-2.7-.4-3.8-1.2-3.4-.7.2-1.3 0-1.3-.4 0-.5.6-1.2 1.3-1.4.8-.4.7-.6-.3-.6-.8 0-2.1.7-2.9 1.5zM94 244.7c0 .1-.8.7-1.8 1.2-1.3.7-1.9.6-1.9-.2 0-.7.9-1.3 1.9-1.3 1 0 1.8.1 1.8.3zm44.4 1.1c.3.5-.1.9-.9.9s-1.2-.4-.9-.9c.3-.4.7-.8.9-.8.2 0 .6.4.9.8zM209.4 133.2c-.3.5-.9.6-1.4.3-.5-.3-1.1-.1-1.5.4-.3.6-1.2.8-2 .4-.8-.3-1.5 0-1.5.7s-.7 1-1.5.6c-.8-.3-1.5-.2-1.5.3s-1.1 1.2-2.5 1.5c-1.4.4-2.3 1.1-2 1.6.3.6-.1 1-.9 1-.9 0-1.6.3-1.6.8 0 .4-1.1 1.9-2.4 3.4-1.4 1.4-2.2 2.9-1.9 3.2.4.3.1.6-.6.6s-.9.4-.6 1c.3.5.2 1-.3 1s-.9.6-1 1.2c-.1 2.1-1.3 8.2-1.7 9.5-.2.7 0 1.5.5 1.8.5.3.7 1.2.4 1.9-.8 2.1 4.1 12 7.7 15.8 1.9 1.9 5.5 4.9 8.2 6.6 4.7 3.3 6.1 5 3.2 3.8-.8-.3-1.5-.2-1.5.3s-.8 1.1-1.7 1.4c-6 1.9-13.7 9.1-16.6 15.7-1.8 4-2.5 12.1-1.4 17 .5 2.7 3.7 8.4 6 11.1 2.2 2.4 11.9 9.6 12.5 9.1.1-.1.3-.2.5-.1.1 0 .9.2 1.7.4.8.2 2.9.6 4.5 1 6.5 1.5 21.5.4 21.5-1.6 0-.5.3-.8.8-.7 1.2.4 6.5-2.9 10-6.1 1.8-1.7 3-3.1 2.6-3.1-.4 0 .1-.9 1-1.9 2.4-2.7 4.6-10.5 4.6-16.6 0-5.4-2.5-14.5-4.4-15.7-.6-.4-.8-.8-.4-.8.3 0-1.7-2.4-4.5-5.4-2.9-3-5.5-5.2-5.8-5.1-.3.2-1.6-.6-3-1.9-1.3-1.2-2.8-2.3-3.4-2.3-1.8-.2-1.6-2.1.2-2.7 1-.3 3-1.7 4.6-3.1 1.5-1.4 2.7-2.3 2.7-1.9 0 1.2 6.2-7 7.3-9.6 1.5-3.7 1.8-5.1 1.9-9.5.2-5-1.1-11.5-2.3-11.5-.5 0-.9-.5-.9-1.2 0-2.2-8-8.7-13.3-10.6-5.5-2.1-17.5-3.4-18.3-2zm9.7 2c2 .5 7.9 6 7.9 7.5 0 .7.5 1.3 1.2 1.3.6 0 .8.3.5.7-.4.3-.3 1.1.2 1.7 1.1 1.4 2.8 10.2 2.5 13.6-.1 1.4-.5 3.4-1 4.4-.5 1.3-.4 1.7.3 1.3.6-.4.3 1.1-.8 3.2-1 2.2-1.9 4.4-1.9 4.9s-1.1 2.2-2.5 3.8c-1.4 1.6-2.5 3.2-2.5 3.5 0 2.1-12.4-2.5-15.8-5.8-.8-.7-2.3-1.8-3.4-2.4-1.1-.6-1.7-1.3-1.5-1.6.3-.2-.2-1.3-1.1-2.3-3.2-3.6-4.3-5-3.6-5 .3 0 .1-.7-.6-1.5-1-1.2-1-1.5 0-1.5.9 0 1-.3.1-1.4-1.7-2-.7-10.6 1.8-15.8 2.1-4.5 6.1-8.1 8.8-8.1.7 0 1.3-.4 1.3-.9 0-.7 6.2-.4 10.1.4zm.1 60.6c.4-.3 4.3 3 9.1 7.4 2.2 2.1 3.5 3.8 3.1 3.8-.5 0-.2.5.6 1s1.5 1.3 1.6 1.7c0 .4.7 2.1 1.4 3.8 2.5 5.9.9 22.5-2.2 22.5-.5 0-.7.4-.4.8.8 1.3-4.2 6.1-6.9 6.8-1.4.3-2.5 1-2.5 1.4 0 .4-2.7.7-6 .8-3.3 0-6-.4-6-.9s-.3-.8-.7-.7c-1.5.3-6.2-2.1-8.3-4.2-1.1-1.1-1.8-2-1.5-2 .3 0-.3-.9-1.3-2-.9-1.2-1.7-2.4-1.8-2.8 0-.4-.4-1.4-.7-2.2-.4-.8-.8-2.5-1-3.7-.2-1.2-.6-2.6-1-2.9-.4-.4-.2-1.3.4-2.1.7-.8.7-1.3.2-1.3-.7 0-.7-1.6-.1-4.8.5-2.6 1.1-5.7 1.2-6.9.4-3 4.9-10.1 9-14.5l3.6-3.6 5 2.4c2.7 1.3 5.1 2.3 5.2 2.2z"/><path d="M128.6 225.8c-.3.5.1.9.9.9s1.2-.4.9-.9c-.3-.4-.7-.8-.9-.8-.2 0-.6.4-.9.8z"/></svg>